<svg width="21" height="21" viewBox="0 0 21 21" fill="none" xmlns="http://www.w3.org/2000/svg">
<path d="M18.375 17.0625H2.625V17.9375C2.625 18.4209 3.01656 18.8125 3.5 18.8125H17.5C17.9834 18.8125 18.375 18.4209 18.375 17.9375V17.0625Z" fill="url(#paint0_linear_101_108)"/>
<path d="M18.375 17.0625H2.625V8.75L10.5 1.3125L18.375 8.75V17.0625Z" fill="url(#paint1_linear_101_108)"/>
<path d="M5.6875 10.9375H10.0625C10.304 10.9375 10.5 11.1335 10.5 11.375V18.8125H5.25V11.375C5.25 11.1335 5.446 10.9375 5.6875 10.9375Z" fill="#DE490D"/>
<path opacity="0.05" d="M10.5 1.75C10.2926 1.75 10.0852 1.8235 9.91988 1.97006L7.57531 4.07488L2.625 8.75V11.1081L10.5 4.12475L18.375 11.1081V8.75L13.4247 4.07488L11.0801 1.97006C10.9148 1.8235 10.7074 1.75 10.5 1.75Z" fill="black"/>
<path opacity="0.07" d="M10.5 1.3125C10.2926 1.3125 10.0852 1.38556 9.91988 1.53125L7.57531 3.62425L2.625 8.27269V10.6172L10.5 3.67369L18.375 10.6172V8.27269L13.4247 3.62425L11.0801 1.53125C10.9148 1.38556 10.7074 1.3125 10.5 1.3125Z" fill="black"/>
<path d="M19.4666 8.53431L11.0801 1.09506C10.9148 0.9485 10.7074 0.875 10.5 0.875C10.2926 0.875 10.0853 0.9485 9.91988 1.09506L1.53344 8.53431C1.34969 8.69794 1.33701 8.98056 1.50544 9.15994L2.22119 9.92337C2.38263 10.0957 2.65169 10.1089 2.82932 9.95269L10.5 3.24975L18.1707 9.95312C18.3479 10.1089 18.6174 10.0962 18.7788 9.92381L19.4946 9.16037C19.663 8.98056 19.6503 8.69794 19.4666 8.53431Z" fill="url(#paint2_linear_101_108)"/>
<path d="M12.6875 10.9375H15.3125C15.554 10.9375 15.75 11.1335 15.75 11.375V14C15.75 14.2415 15.554 14.4375 15.3125 14.4375H12.6875C12.446 14.4375 12.25 14.2415 12.25 14V11.375C12.25 11.1335 12.446 10.9375 12.6875 10.9375Z" fill="url(#paint3_linear_101_108)"/>
<defs>
<linearGradient id="paint0_linear_101_108" x1="2.625" y1="17.9375" x2="18.375" y2="17.9375" gradientUnits="userSpaceOnUse">
<stop stop-color="#C8D3DE"/>
<stop offset="1" stop-color="#C8D3DE"/>
</linearGradient>
<linearGradient id="paint1_linear_101_108" x1="6.16656" y1="4.52287" x2="13.7309" y2="19.1568" gradientUnits="userSpaceOnUse">
<stop stop-color="#FCFCFC"/>
<stop offset="0.495" stop-color="#F4F4F4"/>
<stop offset="0.946" stop-color="#E8E8E8"/>
<stop offset="1" stop-color="#E8E8E8"/>
</linearGradient>
<linearGradient id="paint2_linear_101_108" x1="10.5" y1="0.73675" x2="10.5" y2="10.367" gradientUnits="userSpaceOnUse">
<stop stop-color="#D43A02"/>
<stop offset="1" stop-color="#B9360C"/>
</linearGradient>
<linearGradient id="paint3_linear_101_108" x1="12.2719" y1="10.9594" x2="15.5811" y2="14.2686" gradientUnits="userSpaceOnUse">
<stop stop-color="#33BEF0"/>
<stop offset="1" stop-color="#0A85D9"/>
</linearGradient>
</defs>
</svg>
