<svg width="99" height="99" viewBox="0 0 99 99" fill="none" xmlns="http://www.w3.org/2000/svg">
<path d="M89.8611 34.3117L33 84.5625V90.75H45.375C54.9677 90.719 68.8277 88.6751 78.7524 78.7524C95.4154 62.0874 89.8611 34.3117 89.8611 34.3117Z" fill="#185C37"/>
<path d="M34.3118 89.8611C34.3118 89.8611 27.3673 63.4755 45.4224 45.4224C63.4776 27.3694 89.8611 34.3118 89.8611 34.3118L34.3118 89.8611Z" fill="#107C42"/>
<path d="M61.875 51.5625C61.875 46.0433 60.9242 40.9489 59.3938 36.3083C54.5779 38.2037 49.7599 41.0871 45.4224 45.4224C32.5091 58.3358 32.3854 75.5102 33.363 84.2428L33 84.5625V90.75H40.7179C48.6833 84.9709 61.875 72.2721 61.875 51.5625Z" fill="url(#paint0_radial_101_73)"/>
<path d="M57.75 51.5625C57.75 78.375 33 90.75 33 90.75V8.25C33 8.25 57.75 24.75 57.75 51.5625Z" fill="#33C481"/>
<path d="M33 90.75C33 90.75 8.25 80.4375 8.25 51.5625C8.25 22.6875 33 8.25 33 8.25V90.75Z" fill="#21A366"/>
<defs>
<radialGradient id="paint0_radial_101_73" cx="0" cy="0" r="1" gradientUnits="userSpaceOnUse" gradientTransform="translate(12.1935 50.7293) scale(49.6011)">
<stop offset="0.841" stop-opacity="0.2"/>
<stop offset="1" stop-opacity="0"/>
</radialGradient>
</defs>
</svg>
