<svg width="90" height="90" viewBox="0 0 90 90" fill="none" xmlns="http://www.w3.org/2000/svg">
<path d="M53.4375 11.25H36.5625C35.01 11.25 33.75 12.51 33.75 14.0625V16.875H56.25V14.0625C56.25 12.51 54.99 11.25 53.4375 11.25Z" fill="url(#paint0_linear_101_92)"/>
<path d="M78.75 76.875H11.25C9.1875 76.875 7.5 75.1875 7.5 73.125V24.375C7.5 20.25 10.875 16.875 15 16.875H75C79.125 16.875 82.5 20.25 82.5 24.375V73.125C82.5 75.1875 80.8125 76.875 78.75 76.875Z" fill="url(#paint1_radial_101_92)"/>
<path d="M79.3069 47.3531L45 52.5L10.6931 47.3531C8.8575 47.0794 7.5 45.5025 7.5 43.6462V24.375C7.5 20.25 10.875 16.875 15 16.875H75C79.125 16.875 82.5 20.25 82.5 24.375V43.6462C82.5 45.5025 81.1425 47.0794 79.3069 47.3531Z" fill="url(#paint2_linear_101_92)"/>
<path d="M47.8125 39.375H42.1875C41.67 39.375 41.25 39.795 41.25 40.3125V45.9375C41.25 46.455 41.67 46.875 42.1875 46.875H47.8125C48.33 46.875 48.75 46.455 48.75 45.9375V40.3125C48.75 39.795 48.33 39.375 47.8125 39.375Z" fill="#F6ECA5"/>
<defs>
<linearGradient id="paint0_linear_101_92" x1="45" y1="16.8356" x2="45" y2="11.8275" gradientUnits="userSpaceOnUse">
<stop stop-color="#B33F20"/>
<stop offset="0.129" stop-color="#C74724"/>
<stop offset="0.295" stop-color="#D94F29"/>
<stop offset="0.469" stop-color="#E4532B"/>
<stop offset="0.659" stop-color="#E8552C"/>
</linearGradient>
<radialGradient id="paint1_radial_101_92" cx="0" cy="0" r="1" gradientUnits="userSpaceOnUse" gradientTransform="translate(44.685 11.2349) scale(85.7625 68.9874)">
<stop stop-color="#40150B"/>
<stop offset="0.156" stop-color="#622110"/>
<stop offset="0.417" stop-color="#953218"/>
<stop offset="0.645" stop-color="#BA3F1E"/>
<stop offset="0.828" stop-color="#D14722"/>
<stop offset="0.944" stop-color="#D94A23"/>
</radialGradient>
<linearGradient id="paint2_linear_101_92" x1="45" y1="16.9275" x2="45" y2="50.4881" gradientUnits="userSpaceOnUse">
<stop stop-color="#FC7D5B"/>
<stop offset="0.06" stop-color="#F8734F"/>
<stop offset="0.18" stop-color="#F3653D"/>
<stop offset="0.326" stop-color="#F05B31"/>
<stop offset="0.523" stop-color="#EE552A"/>
<stop offset="1" stop-color="#ED5328"/>
</linearGradient>
</defs>
</svg>
