<svg width="83" height="83" viewBox="0 0 83 83" fill="none" xmlns="http://www.w3.org/2000/svg">
<path d="M19.2301 71.1051C17.2035 73.1316 8.43488 74.5634 8.43488 74.5634C8.43488 74.5634 9.86663 65.7948 11.8932 63.7682C13.9198 61.7416 17.2035 61.7416 19.2301 63.7682C21.2566 65.7948 21.2566 69.0802 19.2301 71.1051Z" fill="url(#paint0_linear_101_79)"/>
<path d="M17.5009 69.1667C16.4893 70.18 12.1042 70.8958 12.1042 70.8958C12.1042 70.8958 12.82 66.5107 13.8333 65.4991C14.8466 64.4858 16.4893 64.4858 17.5009 65.4991C18.5142 66.5107 18.5142 68.1534 17.5009 69.1667Z" fill="url(#paint1_linear_101_79)"/>
<path d="M20.8641 66.9309L16.0691 62.1359C15.4605 61.5272 15.393 60.5641 15.9083 59.8759L20.1967 54.1592L28.8425 62.8051L23.1259 67.0934C22.4359 67.6087 21.4728 67.5395 20.8641 66.9309Z" fill="#199BE2"/>
<path d="M72.1875 8.74096C68.4663 9.00552 60.8857 10.0102 57.0625 13.8334L55.6307 15.2651L67.7349 27.3693L69.1667 25.9375C72.9898 22.1143 73.9945 14.5337 74.259 10.8125C74.3438 9.62802 73.372 8.65623 72.1875 8.74096Z" fill="#50E6FF"/>
<path d="M57.0625 13.832L19.0212 51.8747L31.125 63.978L69.1663 25.9353L57.0625 13.832Z" fill="#35C1F1"/>
<path d="M19.0208 51.875L18.305 52.5909C16.9545 53.9414 16.9545 56.1305 18.305 57.481L25.519 64.695C26.8695 66.0455 29.0586 66.0455 30.4091 64.695L31.125 63.9792L19.0208 51.875Z" fill="#50E6FF"/>
<path d="M52.7396 36.3125C56.0821 36.3125 58.7917 33.6029 58.7917 30.2604C58.7917 26.918 56.0821 24.2083 52.7396 24.2083C49.3971 24.2083 46.6875 26.918 46.6875 30.2604C46.6875 33.6029 49.3971 36.3125 52.7396 36.3125Z" fill="#50E6FF"/>
<path d="M52.7396 34.5833C55.1271 34.5833 57.0625 32.6479 57.0625 30.2604C57.0625 27.8729 55.1271 25.9375 52.7396 25.9375C50.3521 25.9375 48.4167 27.8729 48.4167 30.2604C48.4167 32.6479 50.3521 34.5833 52.7396 34.5833Z" fill="#0078D4"/>
<path d="M40.6354 48.4167C43.9779 48.4167 46.6875 45.7071 46.6875 42.3646C46.6875 39.0221 43.9779 36.3125 40.6354 36.3125C37.2929 36.3125 34.5833 39.0221 34.5833 42.3646C34.5833 45.7071 37.2929 48.4167 40.6354 48.4167Z" fill="#50E6FF"/>
<path d="M40.6354 46.6875C43.0229 46.6875 44.9583 44.7521 44.9583 42.3646C44.9583 39.9771 43.0229 38.0417 40.6354 38.0417C38.2479 38.0417 36.3125 39.9771 36.3125 42.3646C36.3125 44.7521 38.2479 46.6875 40.6354 46.6875Z" fill="#0078D4"/>
<path d="M41.5 53.6042V65.2881C41.5 66.6646 40.9536 67.9839 39.9801 68.9557L34.5833 74.3542L31.125 63.9792L41.5 53.6042Z" fill="#199BE2"/>
<path d="M29.3958 41.5H17.7118C16.3354 41.5 15.0161 42.0464 14.0443 43.0199L8.64583 48.4167L19.0208 51.875L29.3958 41.5Z" fill="#199BE2"/>
<defs>
<linearGradient id="paint0_linear_101_79" x1="16.3891" y1="62.6983" x2="13.6158" y2="75.7421" gradientUnits="userSpaceOnUse">
<stop stop-color="#F44F5A"/>
<stop offset="0.443" stop-color="#EE3D4A"/>
<stop offset="1" stop-color="#E52030"/>
</linearGradient>
<linearGradient id="paint1_linear_101_79" x1="12.1785" y1="70.8215" x2="16.9458" y2="66.0542" gradientUnits="userSpaceOnUse">
<stop stop-color="#FFCF7B"/>
<stop offset="0.195" stop-color="#FECD76"/>
<stop offset="0.439" stop-color="#FAC666"/>
<stop offset="0.71" stop-color="#F3BC4D"/>
<stop offset="0.997" stop-color="#EAAD29"/>
<stop offset="1" stop-color="#EAAD29"/>
</linearGradient>
</defs>
</svg>
