<svg width="24" height="24" viewBox="0 0 24 24" fill="none" xmlns="http://www.w3.org/2000/svg">
<path d="M13 8.5H2V4C2 3.1715 2.6715 2.5 3.5 2.5H4.623C5.1905 2.5 5.7415 2.693 6.1845 3.048L13 8.5ZM2 20C2 20.8285 2.6715 21.5 3.5 21.5H4.623C5.1905 21.5 5.7415 21.307 6.1845 20.952L13 15.5H2V20Z" fill="url(#paint0_linear_101_97)"/>
<path d="M4.071 11H1.5C1.224 11 1 10.776 1 10.5V9C1 8.724 1.224 8.5 1.5 8.5H4.0505C4.3475 8.5 4.635 8.6065 4.8605 8.8L5.1835 9.0775C5.614 9.447 5.604 10.1165 5.1625 10.4735L4.8525 10.724C4.6315 10.9025 4.3555 11 4.071 11Z" fill="#35C1F1"/>
<path d="M4.071 15.5H1.5C1.224 15.5 1 15.276 1 15V13.5C1 13.224 1.224 13 1.5 13H4.0505C4.3475 13 4.635 13.1065 4.8605 13.3L5.1835 13.5775C5.614 13.947 5.604 14.6165 5.1625 14.9735L4.8525 15.224C4.6315 15.4025 4.3555 15.5 4.071 15.5Z" fill="#35C1F1"/>
<path d="M18.348 15.5H3.5V8.5H18.348C19.419 8.5 20.453 8.8885 21.259 9.594L22.335 10.5355C23.221 11.311 23.221 12.689 22.335 13.4645L21.259 14.406C20.4535 15.1115 19.419 15.5 18.348 15.5Z" fill="url(#paint1_linear_101_97)"/>
<path d="M20.5 12C20.5 12.8285 19.8285 13.5 19 13.5V10.5C19.8285 10.5 20.5 11.1715 20.5 12Z" fill="#199BE2"/>
<defs>
<linearGradient id="paint0_linear_101_97" x1="6.13" y1="2.215" x2="8.2935" y2="21.2895" gradientUnits="userSpaceOnUse">
<stop stop-color="#33BEF0"/>
<stop offset="1" stop-color="#0A85D9"/>
</linearGradient>
<linearGradient id="paint1_linear_101_97" x1="12.824" y1="8.405" x2="13.3745" y2="15.258" gradientUnits="userSpaceOnUse">
<stop stop-color="#A3FFFF"/>
<stop offset="0.223" stop-color="#9DFBFF"/>
<stop offset="0.53" stop-color="#8BF1FF"/>
<stop offset="0.885" stop-color="#6EE0FF"/>
<stop offset="1" stop-color="#63DAFF"/>
</linearGradient>
</defs>
</svg>
